<?xml version="1.0" encoding="UTF-8" standalone="no"?>
<svg
   xmlns:dc="http://purl.org/dc/elements/1.1/"
   xmlns:cc="http://creativecommons.org/ns#"
   xmlns:rdf="http://www.w3.org/1999/02/22-rdf-syntax-ns#"
   xmlns:svg="http://www.w3.org/2000/svg"
   xmlns="http://www.w3.org/2000/svg"
   xmlns:sodipodi="http://sodipodi.sourceforge.net/DTD/sodipodi-0.dtd"
   xmlns:inkscape="http://www.inkscape.org/namespaces/inkscape"
   version="1.1"
   id="Layer_1"
   x="0px"
   y="0px"
   viewBox="0 0 295.239 91.239"
   xml:space="preserve"
   sodipodi:docname="airplane-travel-icon.svg"
   inkscape:version="0.92.4 (5da689c313, 2019-01-14)"
   width="295.23901"
   height="91.239014"><metadata
   id="metadata59"><rdf:RDF><cc:Work
       rdf:about=""><dc:format>image/svg+xml</dc:format><dc:type
         rdf:resource="http://purl.org/dc/dcmitype/StillImage" /><dc:title></dc:title></cc:Work></rdf:RDF></metadata><defs
   id="defs57">
	</defs><sodipodi:namedview
   pagecolor="#ffffff"
   bordercolor="#666666"
   borderopacity="1"
   objecttolerance="10"
   gridtolerance="10"
   guidetolerance="10"
   inkscape:pageopacity="0"
   inkscape:pageshadow="2"
   inkscape:window-width="1920"
   inkscape:window-height="1001"
   id="namedview55"
   showgrid="false"
   inkscape:zoom="2"
   inkscape:cx="164.84901"
   inkscape:cy="151.79628"
   inkscape:window-x="-9"
   inkscape:window-y="-9"
   inkscape:window-maximized="1"
   inkscape:current-layer="Layer_1" />

<g
   id="g24"
   transform="translate(0,-204.0004)">
</g>
<g
   id="g26"
   transform="translate(0,-204.0004)">
</g>
<g
   id="g28"
   transform="translate(0,-204.0004)">
</g>
<g
   id="g30"
   transform="translate(0,-204.0004)">
</g>
<g
   id="g32"
   transform="translate(0,-204.0004)">
</g>
<g
   id="g34"
   transform="translate(0,-204.0004)">
</g>
<g
   id="g36"
   transform="translate(0,-204.0004)">
</g>
<g
   id="g38"
   transform="translate(0,-204.0004)">
</g>
<g
   id="g40"
   transform="translate(0,-204.0004)">
</g>
<g
   id="g42"
   transform="translate(0,-204.0004)">
</g>
<g
   id="g44"
   transform="translate(0,-204.0004)">
</g>
<g
   id="g46"
   transform="translate(0,-204.0004)">
</g>
<g
   id="g48"
   transform="translate(0,-204.0004)">
</g>
<g
   id="g50"
   transform="translate(0,-204.0004)">
</g>
<g
   id="g52"
   transform="translate(0,-204.0004)">
</g>
<g
   id="g850"
   transform="translate(-2.1139751,102.00063)"><path
     inkscape:connector-curvature="0"
     id="path2"
     d="m 183.66782,-69.728764 h -21.61007 c -4.90545,0 -8.89821,-3.992776 -8.89821,-8.898256 0,-4.90548 3.99276,-8.898246 8.89821,-8.898246 0.48692,0 0.97117,0.0395 1.44927,0.11825 1.77201,-4.61557 6.24154,-7.745292 11.26258,-7.745292 5.07577,0 9.6406,3.242916 11.35308,7.973002 3.77546,1.080614 6.44362,4.56218 6.44362,8.552556 -2.7e-4,4.90521 -3.99302,8.897986 -8.89848,8.897986 z"
     style="fill:#25ccf7;fill-opacity:1;stroke-width:0.26694912" /><path
     inkscape:connector-curvature="0"
     id="path4"
     d="m 190.76359,-53.61886 c -4.44523,-2.223428 -9.4233,-3.398006 -14.39363,-3.398006 h -16.02842 l -14.40644,-10.16947 h -12.36989 l 10.16942,10.16947 h -10.4313 l -11.44064,-10.16947 h -7.52423 l 5.03653,11.333908 -1.80884,0.30138 v 4.272536 l 0.81232,0.580894 c 5.855,4.182306 12.75376,6.392914 19.94884,6.392914 h 2.86517 l -9.30131,9.301076 1.29924,0.857984 c 0.4055,0.268284 0.78803,0.577144 1.1364,0.917774 l 0.37106,0.363584 h 7.42492 l 16.20755,-11.440678 h 17.72035 c 4.38438,0 8.65049,-0.875864 12.67875,-2.602228 l 1.8609,-0.797114 c 1.19994,-0.516024 1.97543,-1.691938 1.97543,-2.997592 2.6e-4,-1.242914 -0.69007,-2.360372 -1.80218,-2.916962 z m -51.06122,-11.025044 h 5.42681 l 10.80503,7.627038 h -8.60457 z m -21.45123,0 h 2.64546 l 8.58055,7.627038 h -1.75039 c -0.90762,0 -1.82166,0.0763 -2.71647,0.225034 l -3.04456,0.50721 z m 71.33788,14.602176 -1.8609,0.797114 c -3.71193,1.591558 -7.63849,2.397482 -11.67716,2.397482 h -14.11894 l 2.13052,-1.503728 -1.46688,-2.077148 -21.27959,15.02156 H 135.889 l 13.08424,-13.084302 -1.79737,-1.797368 -3.44097,3.440986 h -5.40785 c -6.55814,0 -12.8504,-1.984238 -18.21875,-5.740764 v -0.809664 l 5.32003,-0.887344 c 0.7576,-0.12573 1.53175,-0.18953 2.29843,-0.18953 h 48.6432 c 4.57872,0 9.16277,1.081684 13.2559,3.128392 0.24532,0.12333 0.39775,0.369994 0.39775,0.644414 0,0.28724 -0.17165,0.54671 -0.43459,0.6599 z"
     style="fill:#6c757f;fill-opacity:0.94117647;stroke-width:0.26694912" /><path
     inkscape:connector-curvature="0"
     id="path6"
     d="m 136.63379,-17.609946 h -15.25428 c -4.20631,0 -7.627,-3.420706 -7.627,-7.627032 0,-3.734632 2.74958,-6.897468 6.38275,-7.496228 1.78723,-3.190592 5.1927,-5.21568 8.87152,-5.21568 4.83312,0 8.97216,3.418302 9.94573,8.077112 2.41535,0.942074 4.03734,3.260532 4.03734,5.906014 0,3.504512 -2.85129,6.355814 -6.35606,6.355814 z"
     style="fill:#25ccf7;fill-opacity:1;stroke-width:0.26694912" /><rect
     id="rect8"
     height="2.5424235"
     width="25.4237"
     style="fill:#6c757f;fill-opacity:0.94117647;stroke-width:0.26694912"
     y="-30.32168"
     x="156.9729" /><rect
     id="rect10"
     height="2.5424235"
     width="2.5424235"
     style="fill:#6c757f;fill-opacity:0.94117647;stroke-width:0.26694912"
     y="-30.32168"
     x="151.88806" /><rect
     id="rect12"
     height="2.5424235"
     width="20.338854"
     style="fill:#6c757f;fill-opacity:0.94117647;stroke-width:0.26694912"
     y="-86.254059"
     x="125.19315" /><rect
     id="rect14"
     height="2.5424235"
     width="2.5424235"
     style="fill:#6c757f;fill-opacity:0.94117647;stroke-width:0.26694912"
     y="-86.254059"
     x="120.10857" /><rect
     id="rect16"
     height="2.5424235"
     width="19.067909"
     style="fill:#6c757f;fill-opacity:0.94117647;stroke-width:0.26694912"
     y="-79.897995"
     x="120.10857" /><rect
     id="rect18"
     height="2.5424235"
     width="2.5424235"
     style="fill:#6c757f;fill-opacity:0.94117647;stroke-width:0.26694912"
     y="-79.897995"
     x="115.02372" /><rect
     y="-60.446762"
     x="14.6994"
     height="8.1315832"
     width="77.56279"
     id="rect866"
     style="fill:#6c757f;fill-opacity:0.94117647" /><g
     transform="matrix(0.16655681,0,0,0.16655681,378.44303,-10.000374)"
     id="g4"><path
       inkscape:connector-curvature="0"
       id="path2-0"
       transform="matrix(6.0039574,0,0,6.0039574,-2272.156,-1155.7424)"
       d="m 265.43555,125.61328 -5.64844,5.67188 10.71875,10.74023 h -56.44922 v 8.13086 h 56.62109 l -10.89062,10.85156 5.64844,5.61133 18.51367,-18.51172 c 0.53051,-0.52967 0.82046,-1.23823 0.81836,-1.99414 0.002,-0.75173 -0.28785,-1.45777 -0.81836,-1.98828 z"
       style="fill:#6c757f;fill-opacity:0.94117647;stroke-width:0.10434938" /></g></g></svg>