<?xml version="1.0" encoding="UTF-8" standalone="no"?><!-- Generator: Gravit.io --><svg xmlns="http://www.w3.org/2000/svg" xmlns:xlink="http://www.w3.org/1999/xlink" style="isolation:isolate" viewBox="461.6 124.8 562.8 577.4"><g><path d=" M 909.57 430.57 L 815.98 460.18 C 803.731 464.051 793.992 473.797 790.11 486.04 L 790.11 486.04 L 760.49 579.57 C 754.156 599.993 734.386 600 728.05 579.57 L 728.05 579.57 L 698.44 486.06 C 694.816 474.658 683.899 463.865 672.55 460.17 L 672.55 460.17 L 578.98 430.57 C 558.542 424.265 558.543 404.445 578.98 398.14 L 578.98 398.14 L 672.56 368.53 C 684.809 364.659 694.558 354.915 698.44 342.67 L 698.44 342.67 L 728.05 249.14 C 734.386 228.71 754.156 228.717 760.49 249.14 L 760.49 249.14 L 790.11 342.67 C 793.992 354.913 803.731 364.659 815.98 368.53 L 815.98 368.53 L 909.57 398.14 C 929.999 404.476 929.999 424.234 909.57 430.57 L 909.57 430.57 Z  M 587.4 414.35 L 677.99 385.69 C 695.776 380.07 709.958 365.873 715.6 348.1 L 715.6 348.1 L 744.27 257.54 L 772.95 348.1 C 778.573 365.876 792.776 380.068 810.55 385.69 L 810.55 385.69 L 901.15 414.35 L 810.55 443.02 C 792.776 448.642 778.573 462.834 772.95 480.61 L 772.95 480.61 L 744.27 571.17 L 715.6 480.61 C 714.034 479.043 713.471 474.959 712.287 472.807 C 706.761 462.763 691.511 443.02 677.99 443.02 L 677.99 443.02 L 587.4 414.35 Z " fill-rule="evenodd" fill="rgb(255,255,255)"/><g><path d=" M 719.159 607.344 L 719.196 607.393 L 744.26 645.899 L 769.853 607.626 C 769.853 607.614 769.865 607.614 769.865 607.614 C 770.394 606.815 771.033 606.078 771.733 605.427 C 772.47 604.776 773.281 604.198 774.141 603.719 C 775.026 603.228 775.947 602.847 776.918 602.589 C 777.864 602.331 778.835 602.196 779.805 602.196 C 780.604 602.196 781.402 602.269 782.189 602.417 C 782.951 602.552 783.712 602.773 784.437 603.08 C 785.174 603.363 785.875 603.719 786.538 604.162 C 787.214 604.592 787.841 605.095 788.43 605.66 C 789.032 606.213 789.573 606.84 790.052 607.516 C 790.531 608.179 790.924 608.892 791.244 609.641 C 791.551 610.379 791.797 611.153 791.957 611.939 C 792.116 612.762 792.19 613.598 792.19 614.445 C 792.19 614.445 792.19 614.445 792.19 614.445 L 792.19 689.946 C 792.19 689.958 792.19 689.958 792.19 689.958 C 792.19 690.782 792.116 691.605 791.981 692.416 C 791.834 693.202 791.613 693.964 791.318 694.713 C 791.023 695.426 790.667 696.114 790.249 696.765 C 789.819 697.429 789.315 698.043 788.762 698.608 C 788.209 699.185 787.595 699.702 786.931 700.144 C 786.268 700.598 785.555 700.979 784.818 701.287 C 784.044 701.594 783.245 701.827 782.422 701.975 C 781.562 702.122 780.69 702.196 779.805 702.196 C 778.945 702.196 778.085 702.122 777.225 701.975 C 776.414 701.839 775.603 701.618 774.829 701.311 C 774.104 701.028 773.416 700.66 772.753 700.242 C 772.089 699.812 771.463 699.321 770.885 698.768 C 770.32 698.215 769.804 697.601 769.349 696.937 C 768.907 696.286 768.538 695.586 768.231 694.861 C 767.924 694.099 767.691 693.313 767.543 692.502 C 767.384 691.666 767.298 690.806 767.298 689.946 L 767.298 651.784 L 753.61 672.72 L 753.438 672.929 C 753.426 672.954 753.401 672.978 753.377 673.003 C 752.799 673.716 752.136 674.367 751.436 674.957 C 750.748 675.546 750.01 676.075 749.224 676.529 C 748.315 677.045 747.332 677.438 746.324 677.672 C 745.563 677.856 744.789 677.954 744.002 677.954 C 743.965 677.954 743.916 677.954 743.879 677.954 L 743.56 677.942 L 743.24 677.954 C 743.191 677.954 743.154 677.954 743.118 677.954 C 742.368 677.954 741.619 677.868 740.881 677.684 C 739.886 677.426 738.928 677.045 738.031 676.529 C 737.232 676.075 736.495 675.546 735.795 674.957 C 735.095 674.367 734.456 673.716 733.866 673.003 C 733.829 672.954 733.792 672.905 733.743 672.855 L 733.694 672.782 L 733.596 672.634 L 719.933 651.035 L 719.933 689.946 C 719.933 690.794 719.871 691.629 719.736 692.465 C 719.589 693.251 719.38 694.013 719.11 694.75 C 718.839 695.475 718.495 696.175 718.078 696.826 C 717.672 697.478 717.205 698.092 716.677 698.645 C 716.149 699.198 715.559 699.714 714.932 700.156 C 714.293 700.598 713.605 700.979 712.881 701.274 C 712.143 701.594 711.357 701.827 710.558 701.975 C 709.747 702.122 708.912 702.196 708.089 702.196 C 707.266 702.196 706.442 702.122 705.631 701.962 C 704.857 701.803 704.108 701.569 703.383 701.262 C 702.658 700.955 701.982 700.562 701.343 700.107 C 700.692 699.64 700.103 699.1 699.562 698.51 C 699.046 697.945 698.591 697.343 698.186 696.691 C 697.793 696.04 697.449 695.352 697.178 694.64 C 696.908 693.915 696.699 693.165 696.564 692.391 C 696.429 691.592 696.355 690.769 696.355 689.946 L 696.355 614.445 C 696.355 613.634 696.441 612.824 696.601 612.025 C 696.748 611.239 696.982 610.477 697.301 609.74 C 697.608 609.002 698.002 608.302 698.468 607.651 C 698.935 606.975 699.476 606.349 700.066 605.771 C 700.655 605.194 701.294 604.665 701.982 604.211 C 702.646 603.781 703.358 603.412 704.096 603.105 C 704.845 602.798 705.631 602.564 706.43 602.417 C 707.229 602.269 708.04 602.196 708.863 602.196 C 709.846 602.196 710.841 602.319 711.799 602.552 C 712.807 602.81 713.79 603.166 714.711 603.633 C 715.645 604.112 716.53 604.69 717.34 605.366 C 718.016 605.955 718.631 606.619 719.159 607.344 Z " fill="rgb(255,255,255)"/><path d=" M 1012.093 437.925 C 1012.918 437.925 1013.731 438 1014.543 438.138 C 1015.306 438.288 1016.068 438.513 1016.806 438.8 C 1017.568 439.1 1018.306 439.5 1018.993 439.963 C 1019.631 440.4 1020.231 440.888 1020.781 441.438 C 1021.381 442.025 1021.931 442.675 1022.406 443.375 C 1022.831 444 1023.193 444.675 1023.493 445.363 C 1023.781 446.063 1023.993 446.775 1024.143 447.513 C 1024.306 448.263 1024.381 449.013 1024.381 449.775 C 1024.381 450.625 1024.293 451.463 1024.131 452.3 C 1023.993 453.05 1023.756 453.788 1023.456 454.488 C 1023.131 455.275 1022.718 456.013 1022.193 456.688 C 1021.756 457.275 1021.268 457.838 1020.731 458.338 C 1020.143 458.888 1019.506 459.375 1018.818 459.788 C 1018.168 460.175 1017.493 460.513 1016.793 460.775 C 1016.056 461.05 1015.293 461.263 1014.531 461.4 C 1013.718 461.538 1012.893 461.6 1012.068 461.6 L 968.381 461.6 C 967.531 461.6 966.681 461.525 965.843 461.363 C 965.106 461.213 964.381 461 963.668 460.725 C 962.906 460.425 962.181 460.038 961.493 459.575 C 960.818 459.125 960.193 458.613 959.618 458.025 C 959.056 457.463 958.543 456.838 958.093 456.175 C 957.668 455.525 957.293 454.85 956.993 454.138 C 956.668 453.363 956.443 452.55 956.306 451.725 C 956.156 450.925 956.093 450.125 956.081 449.313 C 956.081 449.313 956.081 449.3 956.081 449.3 L 956.081 373.913 C 956.081 373.9 956.081 373.9 956.081 373.9 C 956.093 373.088 956.156 372.275 956.306 371.475 C 956.443 370.65 956.668 369.85 956.993 369.075 C 957.293 368.363 957.668 367.675 958.093 367.038 C 958.543 366.363 959.056 365.738 959.618 365.175 C 960.193 364.6 960.818 364.075 961.493 363.638 C 962.181 363.163 962.906 362.775 963.668 362.475 C 964.381 362.2 965.106 361.988 965.843 361.85 C 966.681 361.688 967.531 361.6 968.381 361.6 L 1012.081 361.6 C 1012.081 361.6 1012.081 361.6 1012.081 361.6 C 1012.906 361.6 1013.731 361.675 1014.531 361.825 C 1015.331 361.963 1016.093 362.175 1016.843 362.475 C 1017.568 362.75 1018.268 363.1 1018.918 363.525 C 1019.556 363.938 1020.143 364.4 1020.693 364.913 C 1021.293 365.463 1021.831 366.075 1022.293 366.738 C 1022.743 367.388 1023.131 368.088 1023.443 368.813 C 1023.756 369.55 1023.993 370.325 1024.131 371.125 C 1024.306 371.95 1024.381 372.8 1024.381 373.65 C 1024.381 374.475 1024.293 375.3 1024.143 376.125 C 1023.993 376.875 1023.768 377.613 1023.468 378.313 C 1023.156 379.05 1022.756 379.763 1022.281 380.4 C 1021.843 381.038 1021.331 381.613 1020.768 382.113 C 1020.193 382.65 1019.581 383.113 1018.906 383.5 C 1018.281 383.888 1017.606 384.213 1016.906 384.463 C 1016.156 384.75 1015.368 384.963 1014.581 385.088 C 1013.743 385.225 1012.906 385.288 1012.068 385.288 L 981.068 385.288 L 981.068 398.788 L 1006.206 398.788 L 1006.218 398.788 C 1006.231 398.788 1006.231 398.788 1006.243 398.788 C 1007.043 398.788 1007.843 398.863 1008.643 398.988 C 1009.418 399.138 1010.193 399.35 1010.931 399.625 C 1011.656 399.913 1012.343 400.263 1013.006 400.675 C 1013.668 401.088 1014.293 401.575 1014.868 402.125 C 1015.443 402.663 1015.968 403.263 1016.418 403.913 C 1016.893 404.588 1017.293 405.313 1017.593 406.063 C 1017.893 406.775 1018.106 407.5 1018.256 408.25 C 1018.431 409.1 1018.518 409.963 1018.518 410.825 C 1018.518 411.65 1018.431 412.463 1018.268 413.263 C 1018.118 414.063 1017.893 414.838 1017.568 415.575 C 1017.268 416.275 1016.881 416.938 1016.443 417.55 C 1015.981 418.2 1015.443 418.788 1014.856 419.325 C 1014.306 419.825 1013.706 420.275 1013.068 420.663 C 1012.443 421.05 1011.781 421.363 1011.081 421.625 C 1010.318 421.925 1009.518 422.138 1008.693 422.263 C 1007.868 422.413 1007.031 422.475 1006.193 422.475 L 981.068 422.475 L 981.068 437.925 L 1012.093 437.925 C 1012.093 437.925 1012.093 437.925 1012.093 437.925 Z " fill="rgb(255,255,255)"/><path d=" M 768.154 216.392 L 768.154 216.392 L 768.116 216.354 L 768.154 216.392 Z  M 725.641 129.792 C 725.029 128.954 724.304 128.217 723.466 127.592 C 722.591 126.942 721.629 126.404 720.616 125.992 C 719.691 125.604 718.716 125.304 717.729 125.104 C 716.754 124.904 715.766 124.804 714.779 124.804 C 713.904 124.817 713.029 124.892 712.166 125.042 C 711.304 125.204 710.479 125.454 709.666 125.767 C 708.879 126.092 708.116 126.504 707.404 126.979 C 706.691 127.454 706.029 128.004 705.416 128.617 C 704.804 129.217 704.241 129.892 703.754 130.617 C 703.291 131.329 702.891 132.079 702.566 132.867 C 702.241 133.679 701.991 134.517 701.829 135.379 C 701.666 136.242 701.591 137.129 701.591 138.004 L 701.591 212.254 C 701.591 213.079 701.666 213.917 701.816 214.742 C 701.954 215.542 702.154 216.317 702.441 217.067 C 702.741 217.804 703.091 218.517 703.516 219.192 C 703.941 219.842 704.429 220.467 704.954 221.029 C 705.516 221.642 706.141 222.179 706.829 222.654 C 707.491 223.129 708.204 223.529 708.954 223.854 C 709.716 224.167 710.516 224.404 711.316 224.567 C 712.166 224.729 713.029 224.804 713.891 224.804 C 714.766 224.804 715.629 224.729 716.491 224.567 C 717.316 224.417 718.129 224.179 718.904 223.867 C 719.654 223.554 720.366 223.167 721.041 222.717 C 721.754 222.254 722.391 221.704 722.966 221.092 C 723.516 220.529 724.004 219.904 724.441 219.254 C 724.891 218.567 725.266 217.842 725.566 217.079 C 725.854 216.329 726.079 215.542 726.241 214.742 C 726.379 213.917 726.441 213.092 726.441 212.254 C 726.441 212.242 726.441 212.242 726.441 212.242 L 726.441 173.529 L 763.479 220.529 L 763.529 220.579 C 764.141 221.392 764.904 222.079 765.766 222.629 C 766.616 223.179 767.554 223.629 768.541 223.954 C 769.391 224.242 770.266 224.454 771.154 224.604 C 772.016 224.729 772.891 224.792 773.754 224.804 C 774.629 224.792 775.504 224.717 776.366 224.567 C 777.229 224.417 778.079 224.167 778.891 223.842 C 779.679 223.504 780.429 223.104 781.129 222.629 C 781.841 222.154 782.504 221.604 783.116 221.004 C 783.729 220.392 784.291 219.717 784.779 219.004 C 785.254 218.292 785.654 217.542 785.966 216.742 C 786.304 215.942 786.554 215.104 786.704 214.242 C 786.866 213.379 786.954 212.504 786.954 211.629 C 786.954 211.629 786.954 211.629 786.954 211.617 L 786.954 137.367 L 786.954 137.354 C 786.954 137.342 786.954 137.342 786.954 137.329 C 786.941 136.517 786.879 135.704 786.754 134.892 C 786.604 134.104 786.366 133.317 786.079 132.567 C 785.816 131.817 785.454 131.104 785.029 130.429 C 784.604 129.767 784.116 129.142 783.579 128.567 C 783.016 127.954 782.404 127.404 781.716 126.929 C 781.054 126.467 780.341 126.079 779.591 125.754 C 778.804 125.417 777.991 125.179 777.154 125.054 C 776.329 124.892 775.491 124.804 774.654 124.804 C 774.654 124.804 774.654 124.804 774.654 124.804 L 774.641 124.804 L 774.491 124.804 C 773.691 124.804 772.904 124.879 772.129 125.029 C 771.304 125.192 770.504 125.429 769.729 125.754 C 768.966 126.067 768.241 126.454 767.566 126.929 C 766.916 127.392 766.304 127.904 765.741 128.467 C 765.166 129.054 764.654 129.692 764.216 130.379 C 763.766 131.054 763.391 131.792 763.104 132.554 C 762.804 133.292 762.591 134.067 762.441 134.854 C 762.291 135.679 762.216 136.517 762.216 137.354 L 762.216 137.367 L 762.216 176.429 L 725.641 129.792 Z " fill-rule="evenodd" fill="rgb(255,255,255)"/><path d=" M 550.307 445.437 C 550.982 447 551.344 448.687 551.369 450.387 C 551.382 452.087 550.994 453.737 550.219 455.237 C 549.494 456.625 548.482 457.837 547.232 458.8 C 546.044 459.725 544.694 460.437 543.244 460.9 C 541.807 461.362 540.294 461.6 538.769 461.6 C 536.207 461.625 533.669 460.925 531.482 459.587 C 529.057 458.062 527.169 455.825 526.107 453.162 L 521.019 441.325 L 490.769 441.325 L 485.719 453.212 C 484.782 455.75 483.069 457.912 480.819 459.412 C 478.769 460.712 476.382 461.412 473.945 461.387 C 470.932 461.412 467.995 460.4 465.645 458.512 C 464.432 457.525 463.445 456.3 462.732 454.912 C 461.995 453.412 461.607 451.775 461.62 450.1 C 461.645 448.425 461.982 446.762 462.632 445.212 C 462.632 445.212 462.632 445.212 462.632 445.212 L 493.907 370.113 C 494.832 367.7 496.407 365.613 498.457 364.063 C 500.607 362.475 503.207 361.613 505.882 361.6 C 505.932 361.6 505.994 361.6 506.044 361.613 L 506.694 361.638 C 509.307 361.688 511.857 362.525 513.982 364.038 C 516.119 365.563 517.744 367.688 518.657 370.138 L 549.832 444.312 C 549.982 444.687 550.144 445.062 550.307 445.437 Z  M 517.157 422.188 L 494.644 422.188 L 505.769 392.5 L 517.157 422.188 Z " fill-rule="evenodd" fill="rgb(255,255,255)"/><path d=" M 706.773 414.355 C 706.773 393.658 723.576 376.855 744.273 376.855 C 764.969 376.855 781.773 393.658 781.773 414.355 C 781.773 435.052 764.969 451.855 744.273 451.855 C 723.576 451.855 706.773 435.052 706.773 414.355 Z  M 726.773 414.355 C 726.773 404.696 734.614 396.855 744.273 396.855 C 753.931 396.855 761.773 404.696 761.773 414.355 C 761.773 424.013 753.931 431.855 744.273 431.855 C 734.614 431.855 726.773 424.013 726.773 414.355 Z " fill-rule="evenodd" fill="rgb(255,255,255)"/><path d=" M 744.249 301.623 L 744.297 301.623 C 749.251 301.623 753.273 305.645 753.273 310.599 L 753.273 352.625 C 753.273 357.578 749.251 361.6 744.297 361.6 L 744.249 361.6 C 739.295 361.6 735.273 357.578 735.273 352.625 L 735.273 310.599 C 735.273 305.645 739.295 301.623 744.249 301.623 Z " fill="rgb(255,255,255)"/></g><g><path d=" M 816.54 317.84 C 805.707 322.066 799.194 305.262 810.04 301.06 L 810.04 301.06 Q 858.71 282.187 867.299 278.906 C 875.888 275.625 883.388 283.125 880.013 292.758 Q 876.639 302.391 858.8 349.31 C 854.714 360.205 837.865 353.884 841.95 342.99 L 841.95 342.99 L 857.29 302.08 L 816.54 317.84 Z " fill="rgb(255,255,255)"/><path d=" M 816.54 514.105 C 805.707 509.878 799.194 526.683 810.04 530.885 L 810.04 530.885 Q 858.71 549.757 867.299 553.038 C 875.888 556.32 883.388 548.82 880.013 539.187 Q 876.639 529.553 858.8 482.635 C 854.714 471.739 837.865 478.06 841.95 488.955 L 841.95 488.955 L 857.29 529.865 L 816.54 514.105 Z " fill="rgb(255,255,255)"/><path d=" M 668.042 514.105 C 678.875 509.878 685.388 526.683 674.542 530.885 L 674.542 530.885 Q 625.872 549.757 617.283 553.038 C 608.694 556.32 601.194 548.82 604.569 539.187 Q 607.943 529.553 625.782 482.635 C 629.868 471.739 646.717 478.06 642.632 488.955 L 642.632 488.955 L 627.292 529.865 L 668.042 514.105 Z " fill="rgb(255,255,255)"/><path d=" M 668.042 317.587 C 678.875 321.813 685.388 305.008 674.542 300.807 L 674.542 300.807 Q 625.872 281.934 617.283 278.653 C 608.694 275.372 601.194 282.872 604.569 292.505 Q 607.943 302.138 625.782 349.057 C 629.868 359.952 646.717 353.631 642.632 342.737 L 642.632 342.737 L 627.292 301.827 L 668.042 317.587 Z " fill="rgb(255,255,255)"/></g><g><path d=" M 670.273 164.615 C 660.722 160.505 552.722 174.171 522.019 219.529 C 521.401 219.857 558.056 198.838 610.528 191.291 C 556.376 224.242 516.144 267.422 497.533 329.355 C 493.026 344.351 517.861 352.163 522.514 338.355 C 545.906 268.941 600.859 213.988 670.273 190.597 C 677.722 184.505 679.823 168.725 670.273 164.615 Z " fill="rgb(255,255,255)"/><path d=" M 989.538 337.206 C 993.648 327.656 979.982 219.656 934.624 188.953 C 934.296 188.334 955.315 224.989 962.862 277.462 C 929.911 223.31 886.731 183.078 824.798 164.466 C 809.802 159.96 801.99 184.795 815.798 189.448 C 885.212 212.84 940.165 267.792 963.556 337.206 C 969.648 344.656 985.428 346.757 989.538 337.206 Z " fill="rgb(255,255,255)"/><path d=" M 816.947 661.942 C 826.497 666.052 934.497 652.385 965.2 607.027 C 965.819 606.7 929.164 627.719 876.691 635.266 C 930.843 602.315 971.076 559.134 989.687 497.202 C 994.193 482.206 969.358 474.393 964.705 488.202 C 941.313 557.616 886.361 612.569 816.947 635.96 C 809.497 642.052 807.396 657.832 816.947 661.942 Z " fill="rgb(255,255,255)"/><path d=" M 497.681 480.912 C 493.571 490.462 507.238 598.462 552.596 629.165 C 552.923 629.784 531.904 593.129 524.357 540.656 C 557.308 594.808 600.489 635.041 662.421 653.652 C 677.417 658.158 685.23 633.323 671.421 628.67 C 602.007 605.278 547.054 550.326 523.663 480.912 C 517.571 473.462 501.791 471.361 497.681 480.912 Z " fill="rgb(255,255,255)"/></g></g></svg>